<svg xmlns="http://www.w3.org/2000/svg" viewBox="0 0 1200 630" fill="none">
  <rect width="1200" height="630" fill="#0f0f17"/>
  <!-- Background gradient blobs -->
  <ellipse cx="200" cy="200" rx="300" ry="300" fill="#6366f1" opacity="0.12"/>
  <ellipse cx="1050" cy="480" rx="250" ry="250" fill="#8b5cf6" opacity="0.10"/>

  <!-- Shield icon -->
  <g transform="translate(80, 215)">
    <path d="M100 10 L190 45 L190 110 C190 155 150 195 100 210 C50 195 10 155 10 110 L10 45 Z" fill="none" stroke="#6366f1" stroke-width="8" stroke-linejoin="round"/>
    <path d="M55 110 L82 137 L148 72" stroke="#22c55e" stroke-width="10" stroke-linecap="round" stroke-linejoin="round"/>
  </g>

  <!-- Logo text -->
  <text x="290" y="310" font-family="system-ui, -apple-system, sans-serif" font-size="80" font-weight="800" fill="white" letter-spacing="-2">ChequealoAI</text>
  <text x="292" y="380" font-family="system-ui, -apple-system, sans-serif" font-size="34" fill="#a1a1aa" letter-spacing="0">Verificador de Noticias con IA · República Dominicana</text>

  <!-- Bottom badges -->
  <rect x="290" y="420" width="180" height="46" rx="23" fill="#6366f1" opacity="0.2"/>
  <text x="340" y="450" font-family="system-ui, sans-serif" font-size="22" fill="#818cf8">✓ Confiable</text>

  <rect x="490" y="420" width="160" height="46" rx="23" fill="#f59e0b" opacity="0.2"/>
  <text x="535" y="450" font-family="system-ui, sans-serif" font-size="22" fill="#fbbf24">⚠ Dudosa</text>

  <rect x="668" y="420" width="140" height="46" rx="23" fill="#ef4444" opacity="0.2"/>
  <text x="710" y="450" font-family="system-ui, sans-serif" font-size="22" fill="#f87171">✕ Falsa</text>

  <!-- Domain -->
  <text x="290" y="560" font-family="system-ui, sans-serif" font-size="26" fill="#52525b">chequealoai.netlify.app</text>
</svg>
